<svg width="375" height="693" viewBox="0 0 375 300" fill="none" xmlns="http://www.w3.org/2000/svg">
<rect y="20" width="375" height="673" fill="#FEF6F3"/>
<path opacity="0.05" d="M127.886 0.805998C128.262 0.617989 128.638 0.711988 129.014 1.08799C129.39 1.27599 129.484 1.55799 129.296 1.93398C126.476 8.88998 122.998 15.564 118.862 21.956C114.914 28.16 110.496 33.894 105.608 39.158L103.07 43.388C92.166 62.752 81.168 82.116 70.076 101.48C73.46 101.668 76.844 101.856 80.228 102.044C80.792 102.044 81.074 102.326 81.074 102.89C81.074 103.454 80.792 103.736 80.228 103.736C77.032 103.548 73.366 103.36 69.23 103.172C66.034 108.812 62.744 114.546 59.36 120.374L37.646 158.726L26.366 178.184C25.802 179.312 24.862 181.004 23.546 183.26C22.418 185.328 21.478 187.02 20.726 188.336C19.974 189.652 19.034 191.25 17.906 193.13C16.778 194.822 15.744 196.42 14.804 197.924C14.428 198.488 13.864 198.582 13.112 198.206C12.36 197.83 12.172 197.266 12.548 196.514C14.052 193.506 18.376 185.798 25.52 173.39L37.928 151.112C47.14 135.132 56.352 119.058 65.564 102.89C57.668 102.702 51.276 102.702 46.388 102.89C25.896 103.078 5.686 105.146 -14.242 109.094C-14.806 109.282 -15.464 109.47 -16.216 109.658C-16.968 109.846 -17.438 109.94 -17.626 109.94C-18.002 110.504 -19.036 112.196 -20.728 115.016C-33.7 135.32 -46.578 155.812 -59.362 176.492C-59.55 176.868 -59.832 177.056 -60.208 177.056C-60.96 177.056 -61.336 176.68 -61.336 175.928C-61.336 175.74 -61.336 175.552 -61.336 175.364C-54.192 163.708 -46.954 152.146 -39.622 140.678C-33.418 130.526 -27.12 120.468 -20.728 110.504C-29 112.384 -36.708 114.546 -43.852 116.99C-48.364 118.494 -53.346 120.28 -58.798 122.348C-59.174 122.536 -61.336 123.476 -65.284 125.168C-69.232 126.86 -72.24 127.988 -74.308 128.552C-74.496 128.552 -74.59 128.552 -74.59 128.552C-75.53 128.552 -76 128.176 -76 127.424C-76 126.86 -75.812 126.484 -75.436 126.296C-70.172 123.288 -64.72 120.844 -59.08 118.964C-53.44 116.896 -47.8 115.016 -42.16 113.324C-34.452 111.256 -26.744 109.376 -19.036 107.684C-13.02 98.284 -7.004 88.884 -0.987999 79.484C10.48 62 22.042 44.61 33.698 27.314L15.932 43.67L3.524 54.668C-0.423998 58.616 -4.654 62.282 -9.16599 65.666C-9.354 65.854 -9.542 65.854 -9.73 65.666C-9.73 65.478 -9.636 65.29 -9.448 65.102C-5.688 60.966 -1.646 57.018 2.678 53.258L14.804 41.978C23.076 34.458 31.254 26.844 39.338 19.136C39.902 18.76 40.372 18.854 40.748 19.418C41.312 19.794 41.406 20.264 41.03 20.828C29.186 38.5 21.666 49.78 18.47 54.668C7.002 71.964 -4.466 89.448 -15.934 107.12C-4.466 104.864 7.09601 103.266 18.752 102.326C29.468 101.574 40.184 101.198 50.9 101.198C55.976 101.198 61.146 101.292 66.41 101.48C71.674 92.08 76.938 82.774 82.202 73.562C85.022 68.674 89.064 61.624 94.328 52.412C99.78 43.2 103.258 37.184 104.762 34.364C108.522 27.784 112.376 21.11 116.324 14.342C116.7 13.966 117.264 13.214 118.016 12.086C118.768 10.77 119.238 9.82999 119.426 9.26599C119.802 8.70199 120.366 7.85599 121.118 6.72799C121.87 5.59999 122.528 4.75399 123.092 4.18999C123.656 3.626 124.314 3.062 125.066 2.49799C126.006 1.74599 126.946 1.18199 127.886 0.805998ZM117.452 21.392C120.648 15.94 123.562 10.3 126.194 4.47198C124.126 6.16398 122.528 8.23199 121.4 10.676C120.648 12.18 119.52 14.248 118.016 16.88C116.512 19.512 115.572 21.11 115.196 21.674C114.256 23.366 111.906 27.69 108.146 34.646C111.53 30.322 114.632 25.904 117.452 21.392ZM113.213 117.836L113.777 118.4C109.265 122.348 104.001 124.698 97.9852 125.45C97.7972 125.45 97.5152 125.45 97.1392 125.45C96.3872 128.082 95.2592 130.62 93.7552 133.064C90.7472 138.516 87.3632 142.37 83.6032 144.626C81.7232 145.754 79.5612 146.318 77.1172 146.318C76.3652 146.318 75.6132 146.224 74.8612 146.036C71.6652 145.284 69.5032 143.404 68.3752 140.396C67.8112 138.704 67.5292 136.824 67.5292 134.756C67.5292 131.936 68.1872 129.21 69.5032 126.578C70.4432 124.322 71.7592 122.254 73.4512 120.374C74.5792 119.058 75.9892 117.93 77.6812 116.99C78.0572 116.802 78.5272 116.614 79.0912 116.426C78.3392 114.922 77.9632 113.418 77.9632 111.914C77.9632 110.034 78.4332 108.248 79.3732 106.556C80.5012 104.676 81.8172 103.36 83.3212 102.608C84.8252 101.668 86.4232 101.198 88.1152 101.198C90.9352 101.198 93.2852 102.232 95.1652 104.3C97.9852 107.496 99.0192 112.196 98.2672 118.4C98.2672 119.904 98.0792 121.408 97.7032 122.912C98.2672 122.912 98.7372 122.912 99.1132 122.912C99.6772 122.912 100.147 122.912 100.523 122.912C105.223 122.536 109.453 120.844 113.213 117.836ZM83.3212 106.838V107.12C81.2532 110.692 82.0992 114.358 85.8592 118.118C88.8672 120.938 92.4392 122.536 96.5752 122.912C96.7632 121.596 96.9512 120.28 97.1392 118.964C97.8912 113.136 97.1392 108.812 94.8832 105.992C93.3792 103.924 91.4052 102.89 88.9612 102.89C86.3292 103.266 84.4492 104.582 83.3212 106.838ZM93.7552 130.244V130.526C94.5072 128.834 95.1652 127.236 95.7292 125.732C88.7732 125.732 83.7912 123.57 80.7832 119.246C80.5952 119.434 80.2192 119.904 79.6552 120.656C79.0912 121.22 78.6212 121.69 78.2452 122.066C76.5532 123.758 75.1432 125.826 74.0152 128.27C71.9472 132.594 71.6652 136.26 73.1692 139.268C74.2972 141.9 76.2712 143.216 79.0912 143.216C79.4672 143.216 79.8432 143.122 80.2192 142.934C82.6632 142.558 84.7312 141.524 86.4232 139.832C89.4312 137.2 91.8752 134.004 93.7552 130.244ZM179.195 117.554C179.571 116.802 179.853 116.896 180.041 117.836C180.229 118.024 180.229 118.212 180.041 118.4C177.973 121.784 174.965 123.852 171.017 124.604C167.257 125.356 163.685 124.604 160.301 122.348C159.737 121.784 159.173 121.22 158.609 120.656V120.938C156.165 126.578 153.063 131.748 149.303 136.448C147.423 139.08 145.355 141.524 143.099 143.78C141.031 146.412 138.399 148.292 135.203 149.42C134.451 149.796 133.605 149.984 132.665 149.984C131.161 149.984 129.657 149.514 128.153 148.574C126.649 147.446 125.709 146.13 125.333 144.626C124.581 142.558 124.205 140.302 124.205 137.858C124.205 136.542 124.299 135.132 124.487 133.628C125.051 130.432 125.991 127.236 127.307 124.04C127.683 123.1 128.059 122.254 128.435 121.502C126.555 123.006 124.675 124.51 122.795 126.014C118.095 129.774 114.711 132.03 112.643 132.782C109.635 133.91 107.661 133.628 106.721 131.936C105.781 130.244 105.969 128.082 107.285 125.45C108.977 122.066 111.045 119.058 113.489 116.426C117.437 111.914 121.103 109.282 124.487 108.53C124.675 108.53 124.769 108.53 124.769 108.53C125.709 108.53 126.179 108.906 126.179 109.658C126.179 109.846 126.085 110.128 125.897 110.504C124.205 112.384 122.325 114.17 120.257 115.862C118.941 116.99 117.719 118.306 116.591 119.81C115.275 121.314 114.147 122.912 113.207 124.604C112.643 125.356 111.985 126.296 111.233 127.424C110.669 128.364 110.387 129.304 110.387 130.244C111.327 130.808 113.207 130.244 116.027 128.552C118.095 127.236 120.069 125.826 121.949 124.322C125.521 121.878 129.281 118.87 133.229 115.298C133.229 115.298 133.323 115.298 133.511 115.298C133.699 115.298 133.793 115.298 133.793 115.298L134.357 115.016C134.921 115.016 135.203 115.298 135.203 115.862C135.015 117.366 134.545 118.87 133.793 120.374C132.477 122.818 131.349 125.356 130.409 127.988C129.657 130.808 129.187 133.628 128.999 136.448C128.811 137.388 128.717 138.234 128.717 138.986C128.717 140.866 128.999 142.652 129.563 144.344C131.067 147.352 133.699 147.822 137.459 145.754C140.091 144.25 142.441 142.276 144.509 139.832C146.389 137.764 148.175 135.602 149.867 133.346C153.063 129.022 155.695 124.416 157.763 119.528C156.071 117.46 155.225 115.11 155.225 112.478C155.225 110.786 155.789 109 156.917 107.12C158.045 105.052 159.361 103.548 160.865 102.608C161.053 102.608 161.241 102.608 161.429 102.608C161.617 102.608 161.805 102.702 161.993 102.89C163.309 104.018 163.403 106.556 162.275 110.504C161.523 113.136 160.677 115.674 159.737 118.118C160.113 118.87 160.677 119.434 161.429 119.81C164.437 122.442 167.633 123.57 171.017 123.194C174.401 122.63 177.127 120.75 179.195 117.554ZM161.429 104.582C158.985 106.462 157.763 109 157.763 112.196C157.763 113.7 158.139 115.11 158.891 116.426C159.455 114.734 159.925 113.136 160.301 111.632C160.677 110.504 161.053 109.282 161.429 107.966C161.617 107.402 161.711 106.838 161.711 106.274C161.711 105.71 161.617 105.146 161.429 104.582ZM336.758 60.59C337.134 60.59 337.322 60.872 337.322 61.436C337.322 61.812 337.134 61.906 336.758 61.718C327.546 61.53 318.334 61.342 309.122 61.154C297.466 61.154 285.81 61.154 274.154 61.154C273.59 62.094 272.462 63.88 270.77 66.512C269.266 68.956 268.044 70.836 267.104 72.152C258.644 85.312 251.124 97.344 244.544 108.248C240.784 114.452 237.024 120.75 233.264 127.142C229.692 133.346 227.906 136.448 227.906 136.448C226.026 140.02 223.864 143.498 221.42 146.882C220.856 147.634 220.198 147.822 219.446 147.446C218.506 146.882 218.224 146.13 218.6 145.19C220.292 141.43 222.172 137.858 224.24 134.474C227.06 129.21 229.128 125.544 230.444 123.476C237.776 110.88 245.296 98.284 253.004 85.688C256.2 80.8 260.054 74.784 264.566 67.64C265.882 65.572 267.198 63.504 268.514 61.436C264.002 61.436 260.712 61.53 258.644 61.718C251.688 61.906 242.758 62.188 231.854 62.564C230.162 62.564 227.812 62.658 224.804 62.846C221.608 63.034 219.352 63.128 218.036 63.128C215.404 63.316 212.772 63.41 210.14 63.41C208.636 63.41 207.132 63.41 205.628 63.41C204.688 63.222 204.312 62.658 204.5 61.718C204.5 60.59 204.97 59.932 205.91 59.744C210.234 59.368 214.652 59.18 219.164 59.18C219.916 59.18 220.762 59.18 221.702 59.18H236.084C247.364 59.18 258.644 59.18 269.924 59.18L270.488 58.334C274.06 53.258 276.504 50.156 277.82 49.028C278.196 48.84 278.478 48.746 278.666 48.746C279.606 48.746 280.076 49.216 280.076 50.156C280.076 50.156 280.076 50.25 280.076 50.438C278.948 53.634 277.35 56.642 275.282 59.462C297.466 59.65 317.958 60.026 336.758 60.59ZM285.057 117.836L285.621 118.4C281.109 122.348 275.845 124.698 269.829 125.45C269.641 125.45 269.359 125.45 268.983 125.45C268.231 128.082 267.103 130.62 265.599 133.064C262.591 138.516 259.207 142.37 255.447 144.626C253.567 145.754 251.405 146.318 248.961 146.318C248.209 146.318 247.457 146.224 246.705 146.036C243.509 145.284 241.347 143.404 240.219 140.396C239.655 138.704 239.373 136.824 239.373 134.756C239.373 131.936 240.031 129.21 241.347 126.578C242.287 124.322 243.603 122.254 245.295 120.374C246.423 119.058 247.833 117.93 249.525 116.99C249.901 116.802 250.371 116.614 250.935 116.426C250.183 114.922 249.807 113.418 249.807 111.914C249.807 110.034 250.277 108.248 251.217 106.556C252.345 104.676 253.661 103.36 255.165 102.608C256.669 101.668 258.267 101.198 259.959 101.198C262.779 101.198 265.129 102.232 267.009 104.3C269.829 107.496 270.863 112.196 270.111 118.4C270.111 119.904 269.923 121.408 269.547 122.912C270.111 122.912 270.581 122.912 270.957 122.912C271.521 122.912 271.991 122.912 272.367 122.912C277.067 122.536 281.297 120.844 285.057 117.836ZM255.165 106.838V107.12C253.097 110.692 253.943 114.358 257.703 118.118C260.711 120.938 264.283 122.536 268.419 122.912C268.607 121.596 268.795 120.28 268.983 118.964C269.735 113.136 268.983 108.812 266.727 105.992C265.223 103.924 263.249 102.89 260.805 102.89C258.173 103.266 256.293 104.582 255.165 106.838ZM265.599 130.244V130.526C266.351 128.834 267.009 127.236 267.573 125.732C260.617 125.732 255.635 123.57 252.627 119.246C252.439 119.434 252.063 119.904 251.499 120.656C250.935 121.22 250.465 121.69 250.089 122.066C248.397 123.758 246.987 125.826 245.859 128.27C243.791 132.594 243.509 136.26 245.013 139.268C246.141 141.9 248.115 143.216 250.935 143.216C251.311 143.216 251.687 143.122 252.063 142.934C254.507 142.558 256.575 141.524 258.267 139.832C261.275 137.2 263.719 134.004 265.599 130.244ZM387.236 117.836C387.612 117.648 387.988 117.836 388.364 118.4C383.1 125.732 379.246 130.996 376.802 134.192C373.23 138.704 369.376 142.934 365.24 146.882C363.172 148.762 360.822 150.266 358.19 151.394C357.626 151.582 356.968 151.676 356.216 151.676C353.96 151.676 352.55 150.548 351.986 148.292C351.234 145.472 351.892 141.712 353.96 137.012C354.9 134.38 356.028 131.936 357.344 129.68L355.652 131.09C351.892 134.662 347.568 137.388 342.68 139.268C341.552 139.832 340.424 140.114 339.296 140.114C338.356 140.114 337.416 139.926 336.476 139.55C334.22 138.234 333.092 136.354 333.092 133.91C332.904 131.466 333.844 127.8 335.912 122.912C337.228 120.092 338.826 117.46 340.706 115.016C344.842 109.188 348.978 105.24 353.114 103.172C354.054 102.608 354.806 102.796 355.37 103.736C356.122 104.676 356.122 105.428 355.37 105.992C354.806 106.744 353.772 107.778 352.268 109.094C350.952 110.41 349.918 111.35 349.166 111.914C347.474 113.606 345.97 115.486 344.654 117.554C343.15 119.434 341.646 121.502 340.142 123.758C338.262 126.578 336.852 129.492 335.912 132.5C335.536 133.252 335.348 133.91 335.348 134.474C335.348 135.79 335.912 137.012 337.04 138.14C337.792 138.516 338.544 138.704 339.296 138.704C339.672 138.704 340.048 138.704 340.424 138.704C342.68 138.328 344.842 137.482 346.91 136.166C350.858 134.098 354.524 131.466 357.908 128.27L358.472 127.706C359.6 125.45 360.822 123.476 362.138 121.784C363.83 118.776 365.898 116.238 368.342 114.17C368.718 113.794 369.094 113.606 369.47 113.606C370.786 113.606 371.444 114.264 371.444 115.58C371.444 115.768 371.35 116.05 371.162 116.426C369.658 119.058 367.966 121.596 366.086 124.04C364.582 126.484 363.172 128.74 361.856 130.808C361.104 132.312 359.976 134.568 358.472 137.576C356.216 142.464 355.088 145.66 355.088 147.164C355.088 148.104 355.464 148.762 356.216 149.138C356.968 149.514 357.814 149.514 358.754 149.138C360.07 148.574 361.292 147.822 362.42 146.882C364.488 145.378 366.462 143.686 368.342 141.806C375.298 134.286 381.596 126.296 387.236 117.836ZM401.878 103.736C403.57 104.676 404.416 106.086 404.416 107.966C404.416 108.342 404.416 108.624 404.416 108.812C403.852 111.256 402.63 113.23 400.75 114.734C400.374 114.734 400.092 114.546 399.904 114.17C401.408 112.854 402.348 111.256 402.724 109.376C402.724 109.188 402.724 109.094 402.724 109.094C402.724 107.214 401.784 106.274 399.904 106.274C399.904 106.274 399.81 106.274 399.622 106.274C396.802 106.65 394.452 108.812 392.572 112.76C391.256 115.204 390.128 120.374 389.188 128.27C388.436 135.602 386.556 140.49 383.548 142.934C382.044 144.062 380.352 144.626 378.472 144.626C376.78 144.626 375.182 144.062 373.678 142.934C372.174 141.618 371.14 140.114 370.576 138.422C370.012 136.73 370.106 134.756 370.858 132.5C371.422 130.244 372.456 128.552 373.96 127.424C374.148 127.236 374.336 127.142 374.524 127.142C375.464 127.142 375.934 127.612 375.934 128.552C375.934 128.928 375.746 129.21 375.37 129.398C373.114 130.714 371.986 132.688 371.986 135.32C371.986 135.884 372.08 136.448 372.268 137.012C372.644 138.516 373.396 139.738 374.524 140.678C375.464 141.618 376.592 141.994 377.908 141.806C380.164 141.618 381.856 139.55 382.984 135.602C383.924 132.97 384.488 130.244 384.676 127.424C385.428 119.904 386.368 114.734 387.496 111.914C388.624 109.47 390.034 107.308 391.726 105.428C395.298 102.232 398.682 101.668 401.878 103.736ZM448.273 117.836C448.461 117.46 448.743 117.366 449.119 117.554C449.495 117.742 449.589 118.024 449.401 118.4C444.889 124.792 437.087 130.338 425.995 135.038C423.739 135.978 421.389 136.824 418.945 137.576C416.501 138.14 413.775 138.61 410.767 138.986C407.947 139.174 405.503 138.61 403.435 137.294C401.367 135.978 400.145 133.91 399.769 131.09C399.017 127.142 400.427 122.724 403.999 117.836C406.631 114.264 409.921 111.444 413.869 109.376C416.313 108.248 418.757 107.496 421.201 107.12C422.329 106.744 423.457 106.556 424.585 106.556C425.901 106.556 427.217 106.744 428.533 107.12C430.037 107.496 430.789 108.53 430.789 110.222C430.789 110.222 430.789 110.316 430.789 110.504C430.601 111.632 429.473 113.136 427.405 115.016C424.209 117.46 420.637 119.34 416.689 120.656C414.621 121.22 412.459 121.69 410.203 122.066C408.887 122.254 407.853 122.442 407.101 122.63H406.537C402.965 128.458 403.153 132.406 407.101 134.474C410.297 136.166 414.621 136.354 420.073 135.038C423.833 133.91 427.499 132.5 431.071 130.808C439.155 127.048 444.889 122.724 448.273 117.836ZM411.049 116.708C409.921 117.836 408.887 119.058 407.947 120.374C409.451 120.186 410.391 120.092 410.767 120.092C412.835 119.716 414.903 119.246 416.971 118.682C421.107 117.742 424.679 115.768 427.687 112.76C429.379 111.256 429.661 110.128 428.533 109.376C428.157 109.188 427.781 109.094 427.405 109.094C425.525 109.282 423.645 109.658 421.765 110.222C417.817 111.538 414.245 113.7 411.049 116.708Z" fill="black"/>
</svg>
