<svg width="443" height="414" viewBox="0 0 443 414" fill="none" xmlns="http://www.w3.org/2000/svg">
<path d="M57.2809 12.7527L185.824 0.912258C199.153 -0.330813 211.756 5.61529 218.756 16.6514L286.062 122.058C293.062 133.094 293.415 147.058 287.086 159.337L225.849 276.584C219.52 288.863 207.27 296.881 193.941 298.124L65.3975 309.965C52.0682 311.208 39.4655 305.262 32.4652 294.226L-34.8403 188.819C-41.8407 177.783 -42.1937 163.819 -35.8648 151.54L25.373 34.2931C31.8112 22.3967 43.9516 13.9958 57.2809 12.7527ZM-20.8521 152.448C-26.4812 163.434 -26.0668 176.116 -20.0329 186.014L40.3816 280.767C46.8048 290.531 57.772 295.991 69.8243 294.769L185.677 284.161C197.729 282.939 208.671 275.583 214.3 264.597L269.349 159.371C274.978 148.385 274.564 135.703 268.53 125.805L208.115 31.0516C201.692 21.2877 190.725 15.8276 178.673 17.0498L63.0695 27.7817C51.0172 29.0039 40.0751 36.36 34.446 47.346L-20.8521 152.448Z" fill="#FEF6F3"/>
<path d="M-1.16842 420.445L-19.0428 411.729L42.3223 295.451L60.1967 304.167L-1.16842 420.445Z" fill="#FEF6F3"/>
<path d="M417.257 148.534L414.099 173.819L284.764 162.069L287.921 136.784L417.257 148.534Z" fill="#FEF6F3"/>
<path d="M416.457 180.313C407.921 176.102 404.928 165.477 409.771 156.58C414.615 147.683 425.461 143.884 433.997 148.094C442.533 152.305 445.526 162.93 440.682 171.827C435.838 180.724 424.992 184.524 416.457 180.313Z" fill="#FEF6F3"/>
<path d="M292.397 389.293L272.391 402.634L201.658 295.671L221.664 282.33L292.397 389.293Z" fill="#FEF6F3"/>
<path d="M279.576 420.7C271.041 416.489 268.047 405.861 272.89 396.961C277.733 388.06 288.579 384.259 297.115 388.469C305.65 392.68 308.644 403.308 303.801 412.208C298.958 421.109 288.112 424.911 279.576 420.7Z" fill="#FEF6F3"/>
</svg>
