<svg width="1440" height="579" viewBox="0 0 1440 579" fill="none" xmlns="http://www.w3.org/2000/svg">
<rect opacity="0.2" y="46" width="1440" height="533" fill="#FCD1C2"/>
<path opacity="0.05" d="M629.86 1.086C630.449 0.791316 631.039 0.938648 631.628 1.52799C632.217 1.82265 632.365 2.26465 632.07 2.85397C627.65 13.7566 622.199 24.2173 615.716 34.236C609.528 43.96 602.603 52.9473 594.942 61.198L590.964 67.828C573.873 98.1787 556.635 128.529 539.25 158.88C544.554 159.175 549.858 159.469 555.162 159.764C556.046 159.764 556.488 160.206 556.488 161.09C556.488 161.974 556.046 162.416 555.162 162.416C550.153 162.121 544.407 161.827 537.924 161.532C532.915 170.372 527.758 179.359 522.454 188.494L488.42 248.606L470.74 279.104C469.856 280.872 468.383 283.524 466.32 287.06C464.552 290.301 463.079 292.953 461.9 295.016C460.721 297.079 459.248 299.583 457.48 302.53C455.712 305.182 454.091 307.687 452.618 310.044C452.029 310.928 451.145 311.075 449.966 310.486C448.787 309.897 448.493 309.013 449.082 307.834C451.439 303.119 458.217 291.038 469.414 271.59L488.862 236.672C503.301 211.625 517.739 186.431 532.178 161.09C519.802 160.795 509.783 160.795 502.122 161.09C470.003 161.385 438.327 164.626 407.092 170.814C406.208 171.109 405.177 171.403 403.998 171.698C402.819 171.993 402.083 172.14 401.788 172.14C401.199 173.024 399.578 175.676 396.926 180.096C376.594 211.92 356.409 244.039 336.372 276.452C336.077 277.041 335.635 277.336 335.046 277.336C333.867 277.336 333.278 276.747 333.278 275.568C333.278 275.273 333.278 274.979 333.278 274.684C344.475 256.415 355.82 238.293 367.312 220.318C377.036 204.406 386.907 188.641 396.926 173.024C383.961 175.971 371.879 179.359 360.682 183.19C353.61 185.547 345.801 188.347 337.256 191.588C336.667 191.883 333.278 193.356 327.09 196.008C320.902 198.66 316.187 200.428 312.946 201.312C312.651 201.312 312.504 201.312 312.504 201.312C311.031 201.312 310.294 200.723 310.294 199.544C310.294 198.66 310.589 198.071 311.178 197.776C319.429 193.061 327.974 189.231 336.814 186.284C345.654 183.043 354.494 180.096 363.334 177.444C375.415 174.203 387.497 171.256 399.578 168.604C409.007 153.871 418.437 139.137 427.866 124.404C445.841 97 463.963 69.7433 482.232 42.634L454.386 68.27L434.938 85.508C428.75 91.696 422.12 97.442 415.048 102.746C414.753 103.041 414.459 103.041 414.164 102.746C414.164 102.451 414.311 102.157 414.606 101.862C420.499 95.3793 426.835 89.1913 433.612 83.298L452.618 65.618C465.583 53.8313 478.401 41.8973 491.072 29.816C491.956 29.2267 492.693 29.374 493.282 30.258C494.166 30.8473 494.313 31.584 493.724 32.468C475.16 60.1666 463.373 77.8466 458.364 85.508C440.389 112.617 422.415 140.021 404.44 167.72C422.415 164.184 440.537 161.679 458.806 160.206C475.602 159.027 492.398 158.438 509.194 158.438C517.15 158.438 525.253 158.585 533.504 158.88C541.755 144.147 550.005 129.561 558.256 115.122C562.676 107.461 569.011 96.4107 577.262 81.972C585.807 67.5333 591.259 58.104 593.616 53.684C599.509 43.3707 605.55 32.91 611.738 22.302C612.327 21.7127 613.211 20.534 614.39 18.766C615.569 16.7033 616.305 15.23 616.6 14.346C617.189 13.462 618.073 12.136 619.252 10.368C620.431 8.59999 621.462 7.27399 622.346 6.38998C623.23 5.50599 624.261 4.622 625.44 3.73799C626.913 2.55932 628.387 1.67532 629.86 1.086ZM613.506 33.352C618.515 24.8066 623.083 15.9666 627.208 6.83198C623.967 9.48398 621.462 12.7253 619.694 16.556C618.515 18.9133 616.747 22.1547 614.39 26.28C612.033 30.4053 610.559 32.91 609.97 33.794C608.497 36.446 604.813 43.2233 598.92 54.126C604.224 47.3487 609.086 40.424 613.506 33.352ZM606.862 184.516L607.746 185.4C600.674 191.588 592.423 195.271 582.994 196.45C582.699 196.45 582.257 196.45 581.668 196.45C580.489 200.575 578.721 204.553 576.364 208.384C571.649 216.929 566.345 222.97 560.452 226.506C557.505 228.274 554.117 229.158 550.286 229.158C549.107 229.158 547.929 229.011 546.75 228.716C541.741 227.537 538.352 224.591 536.584 219.876C535.7 217.224 535.258 214.277 535.258 211.036C535.258 206.616 536.289 202.343 538.352 198.218C539.825 194.682 541.888 191.441 544.54 188.494C546.308 186.431 548.518 184.663 551.17 183.19C551.759 182.895 552.496 182.601 553.38 182.306C552.201 179.949 551.612 177.591 551.612 175.234C551.612 172.287 552.349 169.488 553.822 166.836C555.59 163.889 557.653 161.827 560.01 160.648C562.367 159.175 564.872 158.438 567.524 158.438C571.944 158.438 575.627 160.059 578.574 163.3C582.994 168.309 584.615 175.676 583.436 185.4C583.436 187.757 583.141 190.115 582.552 192.472C583.436 192.472 584.173 192.472 584.762 192.472C585.646 192.472 586.383 192.472 586.972 192.472C594.339 191.883 600.969 189.231 606.862 184.516ZM560.01 167.278V167.72C556.769 173.319 558.095 179.065 563.988 184.958C568.703 189.378 574.301 191.883 580.784 192.472C581.079 190.409 581.373 188.347 581.668 186.284C582.847 177.149 581.668 170.372 578.132 165.952C575.775 162.711 572.681 161.09 568.85 161.09C564.725 161.679 561.778 163.742 560.01 167.278ZM576.364 203.964V204.406C577.543 201.754 578.574 199.249 579.458 196.892C568.555 196.892 560.747 193.503 556.032 186.726C555.737 187.021 555.148 187.757 554.264 188.936C553.38 189.82 552.643 190.557 552.054 191.146C549.402 193.798 547.192 197.039 545.424 200.87C542.183 207.647 541.741 213.393 544.098 218.108C545.866 222.233 548.96 224.296 553.38 224.296C553.969 224.296 554.559 224.149 555.148 223.854C558.979 223.265 562.22 221.644 564.872 218.992C569.587 214.867 573.417 209.857 576.364 203.964ZM710.28 184.074C710.869 182.895 711.311 183.043 711.606 184.516C711.9 184.811 711.9 185.105 711.606 185.4C708.364 190.704 703.65 193.945 697.462 195.124C691.568 196.303 685.97 195.124 680.666 191.588C679.782 190.704 678.898 189.82 678.014 188.936V189.378C674.183 198.218 669.321 206.321 663.428 213.688C660.481 217.813 657.24 221.644 653.704 225.18C650.462 229.305 646.337 232.252 641.328 234.02C640.149 234.609 638.823 234.904 637.35 234.904C634.992 234.904 632.635 234.167 630.278 232.694C627.92 230.926 626.447 228.863 625.858 226.506C624.679 223.265 624.09 219.729 624.09 215.898C624.09 213.835 624.237 211.625 624.532 209.268C625.416 204.259 626.889 199.249 628.952 194.24C629.541 192.767 630.13 191.441 630.72 190.262C627.773 192.619 624.826 194.977 621.88 197.334C614.513 203.227 609.209 206.763 605.968 207.942C601.253 209.71 598.159 209.268 596.686 206.616C595.212 203.964 595.507 200.575 597.57 196.45C600.222 191.146 603.463 186.431 607.294 182.306C613.482 175.234 619.228 171.109 624.532 169.93C624.826 169.93 624.974 169.93 624.974 169.93C626.447 169.93 627.184 170.519 627.184 171.698C627.184 171.993 627.036 172.435 626.742 173.024C624.09 175.971 621.143 178.77 617.902 181.422C615.839 183.19 613.924 185.253 612.156 187.61C610.093 189.967 608.325 192.472 606.852 195.124C605.968 196.303 604.936 197.776 603.758 199.544C602.874 201.017 602.432 202.491 602.432 203.964C603.905 204.848 606.852 203.964 611.272 201.312C614.513 199.249 617.607 197.039 620.554 194.682C626.152 190.851 632.046 186.137 638.234 180.538C638.234 180.538 638.381 180.538 638.676 180.538C638.97 180.538 639.118 180.538 639.118 180.538L640.002 180.096C640.886 180.096 641.328 180.538 641.328 181.422C641.033 183.779 640.296 186.137 639.118 188.494C637.055 192.325 635.287 196.303 633.814 200.428C632.635 204.848 631.898 209.268 631.604 213.688C631.309 215.161 631.162 216.487 631.162 217.666C631.162 220.613 631.604 223.412 632.488 226.064C634.845 230.779 638.97 231.515 644.864 228.274C648.989 225.917 652.672 222.823 655.914 218.992C658.86 215.751 661.66 212.362 664.312 208.826C669.321 202.049 673.446 194.829 676.688 187.168C674.036 183.927 672.71 180.243 672.71 176.118C672.71 173.466 673.594 170.667 675.362 167.72C677.13 164.479 679.192 162.121 681.55 160.648C681.844 160.648 682.139 160.648 682.434 160.648C682.728 160.648 683.023 160.795 683.318 161.09C685.38 162.858 685.528 166.836 683.76 173.024C682.581 177.149 681.255 181.127 679.782 184.958C680.371 186.137 681.255 187.021 682.434 187.61C687.148 191.735 692.158 193.503 697.462 192.914C702.766 192.03 707.038 189.083 710.28 184.074ZM682.434 163.742C678.603 166.689 676.688 170.667 676.688 175.676C676.688 178.033 677.277 180.243 678.456 182.306C679.34 179.654 680.076 177.149 680.666 174.792C681.255 173.024 681.844 171.109 682.434 169.046C682.728 168.162 682.876 167.278 682.876 166.394C682.876 165.51 682.728 164.626 682.434 163.742ZM957.24 94.79C957.83 94.79 958.124 95.232 958.124 96.116C958.124 96.7053 957.83 96.8527 957.24 96.558C942.802 96.2633 928.363 95.9687 913.924 95.674C895.655 95.674 877.386 95.674 859.116 95.674C858.232 97.1473 856.464 99.9467 853.812 104.072C851.455 107.903 849.54 110.849 848.066 112.912C834.806 133.539 823.02 152.397 812.706 169.488C806.813 179.212 800.92 189.083 795.026 199.102C789.428 208.826 786.628 213.688 786.628 213.688C783.682 219.287 780.293 224.738 776.462 230.042C775.578 231.221 774.547 231.515 773.368 230.926C771.895 230.042 771.453 228.863 772.042 227.39C774.694 221.497 777.641 215.898 780.882 210.594C785.302 202.343 788.544 196.597 790.606 193.356C802.098 173.613 813.885 153.871 825.966 134.128C830.976 126.467 837.016 117.037 844.088 105.84C846.151 102.599 848.214 99.3573 850.276 96.116C843.204 96.116 838.048 96.2633 834.806 96.558C823.904 96.8527 809.907 97.2947 792.816 97.884C790.164 97.884 786.481 98.0313 781.766 98.326C776.757 98.6207 773.221 98.768 771.158 98.768C767.033 99.0627 762.908 99.21 758.782 99.21C756.425 99.21 754.068 99.21 751.71 99.21C750.237 98.9153 749.648 98.0313 749.942 96.558C749.942 94.79 750.679 93.7587 752.152 93.464C758.93 92.8746 765.854 92.58 772.926 92.58C774.105 92.58 775.431 92.58 776.904 92.58H799.446C817.126 92.58 834.806 92.58 852.486 92.58L853.37 91.254C858.969 83.298 862.8 78.436 864.862 76.668C865.452 76.3733 865.894 76.226 866.188 76.226C867.662 76.226 868.398 76.9626 868.398 78.436C868.398 78.436 868.398 78.5833 868.398 78.878C866.63 83.8873 864.126 88.602 860.884 93.022C895.655 93.3167 927.774 93.906 957.24 94.79ZM876.206 184.516L877.09 185.4C870.018 191.588 861.767 195.271 852.338 196.45C852.043 196.45 851.601 196.45 851.012 196.45C849.833 200.575 848.065 204.553 845.708 208.384C840.993 216.929 835.689 222.97 829.796 226.506C826.849 228.274 823.461 229.158 819.63 229.158C818.451 229.158 817.273 229.011 816.094 228.716C811.085 227.537 807.696 224.591 805.928 219.876C805.044 217.224 804.602 214.277 804.602 211.036C804.602 206.616 805.633 202.343 807.696 198.218C809.169 194.682 811.232 191.441 813.884 188.494C815.652 186.431 817.862 184.663 820.514 183.19C821.103 182.895 821.84 182.601 822.724 182.306C821.545 179.949 820.956 177.591 820.956 175.234C820.956 172.287 821.693 169.488 823.166 166.836C824.934 163.889 826.997 161.827 829.354 160.648C831.711 159.175 834.216 158.438 836.868 158.438C841.288 158.438 844.971 160.059 847.918 163.3C852.338 168.309 853.959 175.676 852.78 185.4C852.78 187.757 852.485 190.115 851.896 192.472C852.78 192.472 853.517 192.472 854.106 192.472C854.99 192.472 855.727 192.472 856.316 192.472C863.683 191.883 870.313 189.231 876.206 184.516ZM829.354 167.278V167.72C826.113 173.319 827.439 179.065 833.332 184.958C838.047 189.378 843.645 191.883 850.128 192.472C850.423 190.409 850.717 188.347 851.012 186.284C852.191 177.149 851.012 170.372 847.476 165.952C845.119 162.711 842.025 161.09 838.194 161.09C834.069 161.679 831.122 163.742 829.354 167.278ZM845.708 203.964V204.406C846.887 201.754 847.918 199.249 848.802 196.892C837.899 196.892 830.091 193.503 825.376 186.726C825.081 187.021 824.492 187.757 823.608 188.936C822.724 189.82 821.987 190.557 821.398 191.146C818.746 193.798 816.536 197.039 814.768 200.87C811.527 207.647 811.085 213.393 813.442 218.108C815.21 222.233 818.304 224.296 822.724 224.296C823.313 224.296 823.903 224.149 824.492 223.854C828.323 223.265 831.564 221.644 834.216 218.992C838.931 214.867 842.761 209.857 845.708 203.964ZM1036.36 184.516C1036.95 184.221 1037.54 184.516 1038.13 185.4C1029.88 196.892 1023.84 205.143 1020 210.152C1014.41 217.224 1008.37 223.854 1001.88 230.042C998.641 232.989 994.958 235.346 990.832 237.114C989.948 237.409 988.917 237.556 987.738 237.556C984.202 237.556 981.992 235.788 981.108 232.252C979.93 227.832 980.961 221.939 984.202 214.572C985.676 210.447 987.444 206.616 989.506 203.08L986.854 205.29C980.961 210.889 974.184 215.161 966.522 218.108C964.754 218.992 962.986 219.434 961.218 219.434C959.745 219.434 958.272 219.139 956.798 218.55C953.262 216.487 951.494 213.541 951.494 209.71C951.2 205.879 952.673 200.133 955.914 192.472C957.977 188.052 960.482 183.927 963.428 180.096C969.911 170.961 976.394 164.773 982.876 161.532C984.35 160.648 985.528 160.943 986.412 162.416C987.591 163.889 987.591 165.068 986.412 165.952C985.528 167.131 983.908 168.751 981.55 170.814C979.488 172.877 977.867 174.35 976.688 175.234C974.036 177.886 971.679 180.833 969.616 184.074C967.259 187.021 964.902 190.262 962.544 193.798C959.598 198.218 957.388 202.785 955.914 207.5C955.325 208.679 955.03 209.71 955.03 210.594C955.03 212.657 955.914 214.572 957.682 216.34C958.861 216.929 960.04 217.224 961.218 217.224C961.808 217.224 962.397 217.224 962.986 217.224C966.522 216.635 969.911 215.309 973.152 213.246C979.34 210.005 985.086 205.879 990.39 200.87L991.274 199.986C993.042 196.45 994.958 193.356 997.02 190.704C999.672 185.989 1002.91 182.011 1006.74 178.77C1007.33 178.181 1007.92 177.886 1008.51 177.886C1010.58 177.886 1011.61 178.917 1011.61 180.98C1011.61 181.275 1011.46 181.717 1011.16 182.306C1008.81 186.431 1006.16 190.409 1003.21 194.24C1000.85 198.071 998.641 201.607 996.578 204.848C995.4 207.205 993.632 210.741 991.274 215.456C987.738 223.117 985.97 228.127 985.97 230.484C985.97 231.957 986.56 232.989 987.738 233.578C988.917 234.167 990.243 234.167 991.716 233.578C993.779 232.694 995.694 231.515 997.462 230.042C1000.7 227.685 1003.8 225.033 1006.74 222.086C1017.65 210.299 1027.52 197.776 1036.36 184.516ZM1059.31 162.416C1061.96 163.889 1063.29 166.099 1063.29 169.046C1063.29 169.635 1063.29 170.077 1063.29 170.372C1062.4 174.203 1060.49 177.297 1057.54 179.654C1056.95 179.654 1056.51 179.359 1056.21 178.77C1058.57 176.707 1060.04 174.203 1060.63 171.256C1060.63 170.961 1060.63 170.814 1060.63 170.814C1060.63 167.867 1059.16 166.394 1056.21 166.394C1056.21 166.394 1056.07 166.394 1055.77 166.394C1051.35 166.983 1047.67 170.372 1044.72 176.56C1042.66 180.391 1040.89 188.494 1039.42 200.87C1038.24 212.362 1035.29 220.023 1030.58 223.854C1028.22 225.622 1025.57 226.506 1022.62 226.506C1019.97 226.506 1017.47 225.622 1015.11 223.854C1012.75 221.791 1011.13 219.434 1010.25 216.782C1009.36 214.13 1009.51 211.036 1010.69 207.5C1011.57 203.964 1013.19 201.312 1015.55 199.544C1015.84 199.249 1016.14 199.102 1016.43 199.102C1017.91 199.102 1018.64 199.839 1018.64 201.312C1018.64 201.901 1018.35 202.343 1017.76 202.638C1014.22 204.701 1012.46 207.795 1012.46 211.92C1012.46 212.804 1012.6 213.688 1012.9 214.572C1013.49 216.929 1014.67 218.845 1016.43 220.318C1017.91 221.791 1019.68 222.381 1021.74 222.086C1025.27 221.791 1027.93 218.55 1029.69 212.362C1031.17 208.237 1032.05 203.964 1032.35 199.544C1033.52 187.757 1035 179.654 1036.77 175.234C1038.53 171.403 1040.74 168.015 1043.4 165.068C1048.99 160.059 1054.3 159.175 1059.31 162.416ZM1132.03 184.516C1132.32 183.927 1132.76 183.779 1133.35 184.074C1133.94 184.369 1134.09 184.811 1133.8 185.4C1126.72 195.419 1114.49 204.111 1097.11 211.478C1093.57 212.951 1089.89 214.277 1086.06 215.456C1082.23 216.34 1077.96 217.077 1073.24 217.666C1068.82 217.961 1064.99 217.077 1061.75 215.014C1058.51 212.951 1056.59 209.71 1056 205.29C1054.82 199.102 1057.03 192.177 1062.63 184.516C1066.76 178.917 1071.92 174.497 1078.1 171.256C1081.93 169.488 1085.76 168.309 1089.6 167.72C1091.36 167.131 1093.13 166.836 1094.9 166.836C1096.96 166.836 1099.02 167.131 1101.09 167.72C1103.44 168.309 1104.62 169.93 1104.62 172.582C1104.62 172.582 1104.62 172.729 1104.62 173.024C1104.33 174.792 1102.56 177.149 1099.32 180.096C1094.31 183.927 1088.71 186.873 1082.52 188.936C1079.28 189.82 1075.89 190.557 1072.36 191.146C1070.29 191.441 1068.67 191.735 1067.5 192.03H1066.61C1061.01 201.165 1061.31 207.353 1067.5 210.594C1072.5 213.246 1079.28 213.541 1087.83 211.478C1093.72 209.71 1099.47 207.5 1105.07 204.848C1117.74 198.955 1126.72 192.177 1132.03 184.516ZM1073.68 182.748C1071.92 184.516 1070.29 186.431 1068.82 188.494C1071.18 188.199 1072.65 188.052 1073.24 188.052C1076.48 187.463 1079.72 186.726 1082.97 185.842C1089.45 184.369 1095.05 181.275 1099.76 176.56C1102.41 174.203 1102.86 172.435 1101.09 171.256C1100.5 170.961 1099.91 170.814 1099.32 170.814C1096.37 171.109 1093.43 171.698 1090.48 172.582C1084.29 174.645 1078.69 178.033 1073.68 182.748Z" fill="black"/>
</svg>
